<svg width="94" height="94" viewBox="0 0 94 94" fill="none" xmlns="http://www.w3.org/2000/svg">
<path d="M89.638 42.8512C84.9237 36.8067 78.8172 31.8069 71.9789 28.3927C64.9984 24.9076 57.4887 23.0993 49.6494 23.0044C49.4335 22.9985 48.5665 22.9985 48.3506 23.0044C40.5114 23.0994 33.0016 24.9076 26.0211 28.3927C19.1828 31.8069 13.0766 36.8065 8.36213 42.8512C6.54596 45.1797 6.54596 48.4323 8.36213 50.7608C13.0765 56.8053 19.1828 61.8051 26.0211 65.2193C33.0016 68.7044 40.5113 70.5127 48.3506 70.6076C48.5665 70.6135 49.4335 70.6135 49.6494 70.6076C57.4886 70.5126 64.9984 68.7044 71.9789 65.2193C78.8172 61.8051 84.9235 56.8055 89.638 50.7608C91.4542 48.4319 91.4542 45.1797 89.638 42.8512ZM27.5477 62.162C21.1624 58.9739 15.4599 54.3047 11.0567 48.6592C10.2057 47.568 10.2057 46.044 11.0567 44.9528C15.4598 39.3073 21.1623 34.6381 27.5477 31.45C29.3613 30.5447 31.2132 29.7618 33.0994 29.099C28.2468 33.4611 25.1895 39.7827 25.1895 46.8059C25.1895 53.8294 28.247 60.1516 33.1001 64.5135C31.2139 63.8507 29.3614 63.0674 27.5477 62.162ZM49.0002 67.1993C37.755 67.1993 28.6066 58.0509 28.6066 46.8057C28.6066 35.5606 37.755 26.4123 49.0002 26.4123C60.2453 26.4123 69.3937 35.5608 69.3937 46.8059C69.3937 58.0511 60.2453 67.1993 49.0002 67.1993ZM86.9436 48.659C82.5405 54.3045 76.8381 58.9737 70.4526 62.1618C68.6412 63.0661 66.7904 63.8456 64.9065 64.5077C69.7558 60.1458 72.8108 53.8261 72.8108 46.8057C72.8108 39.7816 69.7527 33.4591 64.8993 29.097C66.786 29.76 68.6387 30.5439 70.4528 31.4497C76.8381 34.6377 82.5405 39.307 86.9438 44.9525C87.7946 46.0438 87.7946 47.5678 86.9436 48.659Z" fill="#FDFDFF"/>
<path d="M49.0002 38.0781C44.188 38.0781 40.2729 41.9931 40.2729 46.8054C40.2729 51.6177 44.188 55.5327 49.0002 55.5327C53.8125 55.5327 57.7275 51.6177 57.7275 46.8054C57.7277 41.9931 53.8127 38.0781 49.0002 38.0781ZM49.0002 52.1158C46.0722 52.1158 43.6899 49.7338 43.6899 46.8054C43.6899 43.8772 46.0719 41.4952 49.0002 41.4952C51.9283 41.4952 54.3104 43.8772 54.3104 46.8054C54.3106 49.7338 51.9283 52.1158 49.0002 52.1158Z" fill="#FDFDFF"/>
</svg>
