<svg width="94" height="94" viewBox="0 0 94 94" fill="none" xmlns="http://www.w3.org/2000/svg">
<path d="M86.7444 18.0656C86.2978 17.8078 85.7913 17.6721 85.2756 17.6721C84.76 17.6721 84.2534 17.8078 83.8069 18.0656L58.75 30.4913V20.5625C58.7485 20.0618 58.619 19.5697 58.3738 19.1331C58.1286 18.6965 57.7759 18.3298 57.3492 18.0679C56.9224 17.8059 56.4358 17.6574 55.9355 17.6365C55.4352 17.6155 54.9378 17.7228 54.4906 17.9481L29.375 30.4913V8.8125C29.375 8.03343 29.0655 7.28626 28.5146 6.73537C27.9637 6.18449 27.2166 5.875 26.4375 5.875H8.8125C8.03343 5.875 7.28626 6.18449 6.73537 6.73537C6.18449 7.28626 5.875 8.03343 5.875 8.8125V82.25H88.125V20.5625C88.126 20.0633 87.9998 19.5721 87.7582 19.1352C87.5166 18.6983 87.1677 18.3302 86.7444 18.0656ZM64.625 76.375H52.875V55.8125H64.625V76.375ZM82.25 76.375H70.5V52.875C70.5 52.0959 70.1905 51.3488 69.6396 50.7979C69.0887 50.247 68.3416 49.9375 67.5625 49.9375H49.9375C49.1584 49.9375 48.4113 50.247 47.8604 50.7979C47.3095 51.3488 47 52.0959 47 52.875V76.375H11.75V11.75H23.5V40.0088L52.875 25.3212V40.0088L82.25 25.3212V76.375Z" fill="white"/>
</svg>
