<svg width="32" height="32" viewBox="0 0 32 32" fill="none" xmlns="http://www.w3.org/2000/svg">
<path d="M18.3773 20.2293L21.2053 17.4013L29.2 25.396L26.372 28.224L18.3773 20.2293ZM23.3333 13.3333C25.9067 13.3333 28 11.24 28 8.66667C28 7.89333 27.7867 7.17333 27.4533 6.53333L23.8533 10.1333L21.8667 8.14667L25.4667 4.54667C24.8267 4.21333 24.1067 4 23.3333 4C20.76 4 18.6667 6.09333 18.6667 8.66667C18.6667 9.21333 18.7733 9.73333 18.9467 10.2133L16.48 12.68L14.1067 10.3067L15.0533 9.36L13.1733 7.48L16 4.65333C15.25 3.90426 14.2333 3.48352 13.1733 3.48352C12.1133 3.48352 11.0967 3.90426 10.3467 4.65333L5.62665 9.37333L7.50665 11.2533H3.74665L2.79999 12.2L7.51999 16.92L8.46665 15.9733V12.2L10.3467 14.08L11.2933 13.1333L13.6667 15.5067L3.78665 25.3867L6.61332 28.2133L21.7867 13.0533C22.2667 13.2267 22.7867 13.3333 23.3333 13.3333Z" fill="white"/>
</svg>
