<svg width="32" height="32" viewBox="0 0 32 32" fill="none" xmlns="http://www.w3.org/2000/svg">
<path d="M5.33333 10.6667V7.99999C5.33333 7.29275 5.61428 6.61447 6.11438 6.11438C6.61447 5.61428 7.29275 5.33333 7.99999 5.33333H10.6667L5.33333 10.6667ZM5.33333 21.3333V24C5.33333 24.7072 5.61428 25.3855 6.11438 25.8856C6.61447 26.3857 7.29275 26.6667 7.99999 26.6667H10.6667L5.33333 21.3333ZM21.3333 5.33333H24C24.7072 5.33333 25.3855 5.61428 25.8856 6.11438C26.3857 6.61447 26.6667 7.29275 26.6667 7.99999V10.6667L21.3333 5.33333ZM21.3333 26.6667H24C24.7072 26.6667 25.3855 26.3857 25.8856 25.8856C26.3857 25.3855 26.6667 24.7072 26.6667 24V21.3333L21.3333 26.6667ZM16 16.6667L21.3333 13.3333L16 16.6667ZM10.6667 13.3333L16 16.6667V22.6667L21.3333 19.3333V13.3333L16 10L10.6667 13.3333Z" stroke="white" stroke-width="2" stroke-linecap="round" stroke-linejoin="round"/>
<path d="M10.6667 13.3333V19.3333L16 22.6667" stroke="white" stroke-width="2" stroke-linecap="round" stroke-linejoin="round"/>
</svg>
