<svg width="94" height="94" viewBox="0 0 94 94" fill="none" xmlns="http://www.w3.org/2000/svg">
<path d="M83.4716 43.0933C84.9926 41.6107 85.5296 39.4347 84.8734 37.4146C84.2169 35.3945 82.5035 33.9499 80.4015 33.6446L62.0216 30.9738C61.6608 30.9215 61.3489 30.6949 61.1875 30.3678L52.9678 13.713C52.0279 11.8082 50.1244 10.625 48.0003 10.625C45.8762 10.625 43.9727 11.8082 43.0328 13.713L34.8131 30.368C34.6515 30.6949 34.3398 30.9215 33.9789 30.974L15.5993 33.6446C13.4973 33.9499 11.784 35.3945 11.1274 37.4146C10.4709 39.4347 11.008 41.6107 12.5292 43.0933L25.8289 56.0573C26.0899 56.312 26.2092 56.6787 26.1475 57.0381L23.0079 75.3435C22.6489 77.4372 23.4931 79.513 25.2115 80.7615C26.9299 82.0104 29.1658 82.1717 31.0456 81.1835L47.4848 72.5409C47.8077 72.3711 48.1931 72.3711 48.5161 72.5409L64.9555 81.1835C65.7732 81.6134 66.658 81.8258 67.5385 81.8257C68.682 81.8257 69.8183 81.4673 70.7891 80.7614C72.5075 79.5127 73.3519 77.4367 72.9928 75.3434L69.8531 57.038C69.7916 56.6785 69.9107 56.3118 70.1717 56.0572L83.4716 43.0933ZM65.4856 57.7874L68.6253 76.0932C68.7303 76.7058 68.3521 77.0551 68.1846 77.1766C68.0169 77.298 67.5677 77.5502 67.0178 77.2608L50.5784 68.6181C49.7714 68.194 48.8861 67.9817 48.0006 67.9817C47.1152 67.9817 46.2297 68.194 45.4229 68.618L28.9837 77.2605C28.4334 77.5497 27.9844 77.2979 27.8169 77.1763C27.6493 77.0547 27.271 76.7054 27.3762 76.0928L30.5158 57.7874C30.8241 55.9901 30.2287 54.1572 28.9226 52.8842L15.6229 39.9202C15.1778 39.4861 15.2785 38.9812 15.3427 38.7844C15.4065 38.5873 15.6219 38.1196 16.237 38.0303L34.6164 35.3596C36.4209 35.0974 37.9804 33.9647 38.7875 32.3292L47.0072 15.6742C47.2824 15.1169 47.7936 15.0567 48.0008 15.0567C48.2077 15.0567 48.7189 15.1167 48.9942 15.6742V15.6744L57.2139 32.3293C58.0209 33.9649 59.5802 35.0975 61.3847 35.3597L79.7644 38.0305C80.3795 38.1197 80.5948 38.5875 80.6588 38.7845C80.7227 38.9816 80.8236 39.4865 80.3784 39.9203L67.0786 52.8844C65.7727 54.1572 65.1773 55.9901 65.4856 57.7874Z" fill="#FDFDFF"/>
<path d="M73.8862 13.7123C72.8959 12.9931 71.5104 13.2126 70.7911 14.2026L68.439 17.4398C67.7197 18.4298 67.9391 19.8156 68.9292 20.5349C69.3228 20.8205 69.7784 20.9582 70.2299 20.9582C70.9152 20.9582 71.5908 20.6414 72.0242 20.0448L74.3764 16.8076C75.0956 15.8174 74.8763 14.4316 73.8862 13.7123Z" fill="#FDFDFF"/>
<path d="M27.5511 17.4259L25.199 14.1887C24.4799 13.199 23.0942 12.9795 22.1039 13.6984C21.114 14.4177 20.8945 15.8035 21.6137 16.7935L23.9659 20.0308C24.3995 20.6278 25.0751 20.9444 25.7606 20.9444C26.2122 20.9444 26.668 20.8068 27.0611 20.521C28.051 19.8019 28.2706 18.4161 27.5511 17.4259Z" fill="#FDFDFF"/>
<path d="M14.1296 60.3392C13.7514 59.1755 12.5014 58.5385 11.3374 58.9167L7.53165 60.1534C6.36763 60.5315 5.7309 61.7818 6.10907 62.9455C6.41324 63.8822 7.28195 64.4774 8.21596 64.4774C8.44286 64.4774 8.67369 64.4421 8.90125 64.3681L12.707 63.1314C13.8709 62.7533 14.5078 61.5033 14.1296 60.3392Z" fill="#FDFDFF"/>
<path d="M48.0007 84.9414C46.777 84.9414 45.7849 85.9335 45.7849 87.1572V91.159C45.7849 92.3828 46.777 93.3749 48.0007 93.3749C49.2245 93.3749 50.2166 92.3828 50.2166 91.159V87.1572C50.2166 85.9333 49.2246 84.9414 48.0007 84.9414Z" fill="#FDFDFF"/>
<path d="M88.4682 60.1562L84.6625 58.9195C83.499 58.5416 82.2485 59.1782 81.8703 60.3422C81.4921 61.5062 82.1289 62.7562 83.2929 63.1344L87.0986 64.3711C87.3262 64.4449 87.5569 64.48 87.7838 64.48C88.7179 64.48 89.5867 63.8847 89.8908 62.9482C90.269 61.7843 89.6321 60.5343 88.4682 60.1562Z" fill="#FDFDFF"/>
</svg>
