<svg width="58" height="84" viewBox="0 0 58 84" fill="none" xmlns="http://www.w3.org/2000/svg">
<path d="M46.0661 29.1365L57.0322 14.4318C57.4701 13.8446 57.5393 13.0604 57.2107 12.4054C56.8821 11.7505 56.2122 11.337 55.4794 11.337H8.26514V8.86741C9.86245 8.13176 10.9746 6.51673 10.9746 4.64592C10.9745 2.08425 8.89038 0 6.32855 0C3.76671 0 1.68246 2.08425 1.68246 4.64592C1.68246 6.51656 2.79431 8.13143 4.3913 8.86725V80.1265H1.93676C0.867234 80.1265 0 80.9936 0 82.0632C0 83.1329 0.867234 84 1.93676 84H10.7202C11.7897 84 12.6569 83.1329 12.6569 82.0632C12.6569 80.9936 11.7897 80.1265 10.7202 80.1265H8.26498V46.8636H55.409C56.1414 46.8636 56.8111 46.4505 57.1397 45.7959C57.4683 45.1415 57.3997 44.3574 56.9623 43.7701L46.0661 29.1365ZM6.32855 5.80568C5.68903 5.80568 5.16895 5.28544 5.16895 4.64592C5.16879 4.00657 5.68903 3.48633 6.32855 3.48633C6.96806 3.48633 7.48831 4.00657 7.48831 4.64592C7.48831 5.28544 6.9679 5.80568 6.32855 5.80568ZM8.2653 42.9901V42.99V36.5571H14.4378C15.5075 36.5571 16.3746 35.69 16.3746 34.6203C16.3746 33.5506 15.5075 32.6835 14.4378 32.6835H8.2653V25.518H17.9238C18.9935 25.518 19.8606 24.6509 19.8606 23.5812C19.8606 22.5115 18.9935 21.6444 17.9238 21.6444H8.2653V15.2109H51.619L42.0979 27.9781C41.5861 28.6645 41.5857 29.6057 42.0971 30.2928L51.552 42.9903H8.2653V42.9901Z" fill="#FDFDFF"/>
</svg>
